<svg width="26" height="14" viewBox="0 0 26 14" fill="none" xmlns="http://www.w3.org/2000/svg">
<path d="M25.372 12.5018C25.3713 13.2612 24.7551 13.8762 23.9957 13.8754C23.2363 13.8747 22.6214 13.2585 22.6221 12.4991L25.372 12.5018ZM22.1994 6.38945L21.0442 7.1351L21.0435 7.13405L22.1994 6.38945ZM17.4131 2.33848L17.9547 1.07469L17.9564 1.07543L17.4131 2.33848ZM11.2518 1.70994L10.9722 0.363704L10.9765 0.362816L11.2518 1.70994ZM5.79287 4.72223L6.78273 5.67652L6.78165 5.67764L5.79287 4.72223ZM4.43515 9.73757C4.22538 10.4674 3.46369 10.889 2.73387 10.6792C2.00406 10.4694 1.58248 9.70773 1.79225 8.97792L4.43515 9.73757ZM4.44612 9.01206C4.63712 9.74701 4.19616 10.4976 3.46121 10.6886C2.72626 10.8797 1.97562 10.4387 1.78462 9.70374L4.44612 9.01206ZM0.668955 5.41078C0.477953 4.67583 0.918913 3.9252 1.65386 3.7342C2.38882 3.54319 3.13945 3.98415 3.33045 4.71911L0.668955 5.41078ZM3.4811 10.6835C2.74916 10.8858 1.99185 10.4564 1.78959 9.72448C1.58734 8.99254 2.01673 8.23523 2.74866 8.03297L3.4811 10.6835ZM6.9112 6.88274C7.64313 6.68048 8.40044 7.10987 8.6027 7.84181C8.80496 8.57374 8.37557 9.33106 7.64363 9.53331L6.9112 6.88274ZM22.6221 12.4991C22.624 10.5964 22.0761 8.7337 21.0442 7.1351L23.3546 5.64379C24.6739 7.68765 25.3744 10.0692 25.372 12.5018L22.6221 12.4991ZM21.0435 7.13405C20.0345 5.5677 18.5813 4.33779 16.8698 3.60154L17.9564 1.07543C20.1704 2.0278 22.0501 3.61871 23.3553 5.64484L21.0435 7.13405ZM16.8715 3.60227C15.1871 2.88043 13.3224 2.69021 11.527 3.05706L10.9765 0.362816C13.3208 -0.116171 15.7554 0.132198 17.9547 1.07469L16.8715 3.60227ZM11.5314 3.05617C9.72097 3.43216 8.06605 4.34536 6.78273 5.67652L4.803 3.76795C6.47022 2.03857 8.62021 0.852178 10.9722 0.363711L11.5314 3.05617ZM6.78165 5.67764C5.67917 6.81864 4.87345 8.2127 4.43515 9.73757L1.79225 8.97792C2.35483 7.02068 3.389 5.23134 4.80408 3.76683L6.78165 5.67764ZM1.78462 9.70374L0.668955 5.41078L3.33045 4.71911L4.44612 9.01206L1.78462 9.70374ZM2.74866 8.03297L6.9112 6.88274L7.64363 9.53331L3.4811 10.6835L2.74866 8.03297Z" fill="black"/>
</svg>
