<svg width="26" height="14" viewBox="0 0 26 14" fill="none" xmlns="http://www.w3.org/2000/svg">
<path d="M0.680756 12.5014C0.681515 13.2607 1.29772 13.8757 2.05708 13.875C2.81645 13.8742 3.43142 13.258 3.43066 12.4986L0.680756 12.5014ZM3.85334 6.38898L5.00855 7.13463L5.00922 7.13359L3.85334 6.38898ZM8.6397 2.33802L8.0981 1.07423L8.09639 1.07496L8.6397 2.33802ZM14.801 1.70947L15.0806 0.36324L15.0763 0.362353L14.801 1.70947ZM20.2599 4.72177L19.27 5.67606L19.2711 5.67718L20.2599 4.72177ZM21.6176 9.73711C21.8274 10.4669 22.5891 10.8885 23.3189 10.6787C24.0487 10.469 24.4703 9.70727 24.2605 8.97745L21.6176 9.73711ZM21.6102 9.01083C21.4192 9.74579 21.8602 10.4964 22.5951 10.6874C23.3301 10.8784 24.0807 10.4375 24.2717 9.70251L21.6102 9.01083ZM25.3874 5.40956C25.5784 4.6746 25.1374 3.92397 24.4025 3.73297C23.6675 3.54197 22.9169 3.98293 22.7259 4.71788L25.3874 5.40956ZM22.5729 10.6822C23.3048 10.8845 24.0621 10.4551 24.2644 9.72314C24.4666 8.9912 24.0372 8.23389 23.3053 8.03163L22.5729 10.6822ZM19.1428 6.8814C18.4108 6.67914 17.6535 7.10853 17.4513 7.84047C17.249 8.5724 17.6784 9.32971 18.4103 9.53197L19.1428 6.8814ZM3.43066 12.4986C3.42876 10.5959 3.9767 8.73323 5.00855 7.13463L2.69814 5.64333C1.37889 7.68719 0.678326 10.0687 0.680756 12.5014L3.43066 12.4986ZM5.00922 7.13359C6.01825 5.56723 7.47143 4.33733 9.18302 3.60107L8.09639 1.07496C5.8824 2.02733 4.00267 3.61825 2.69746 5.64438L5.00922 7.13359ZM9.1813 3.60181C10.8657 2.87997 12.7303 2.68975 14.5258 3.0566L15.0763 0.362353C12.732 -0.116634 10.2974 0.131735 8.0981 1.07423L9.1813 3.60181ZM14.5214 3.0557C16.3318 3.43169 17.9867 4.3449 19.27 5.67606L21.2498 3.76748C19.5826 2.03811 17.4326 0.851716 15.0806 0.363248L14.5214 3.0557ZM19.2711 5.67718C20.3736 6.81818 21.1793 8.21223 21.6176 9.73711L24.2605 8.97745C23.6979 7.02021 22.6638 5.23088 21.2487 3.76636L19.2711 5.67718ZM24.2717 9.70251L25.3874 5.40956L22.7259 4.71788L21.6102 9.01083L24.2717 9.70251ZM23.3053 8.03163L19.1428 6.8814L18.4103 9.53197L22.5729 10.6822L23.3053 8.03163Z" fill="black"/>
</svg>
