<svg width="187" height="237" viewBox="0 0 187 237" fill="none" xmlns="http://www.w3.org/2000/svg">
<circle cx="2.99921" cy="2.99921" r="2.99921" transform="matrix(0.351072 0.936348 0.936348 -0.351072 93.2837 190.527)" fill="#5A5AFF"/>
<circle cx="2.99921" cy="2.99921" r="2.99921" transform="matrix(0.351072 0.936348 0.936348 -0.351072 131.884 159.066)" fill="#5A5AFF"/>
<circle cx="3.89897" cy="3.89897" r="3.89897" transform="matrix(0.351072 0.936348 0.936348 -0.351072 175.939 188.074)" fill="#5A5AFF"/>
<circle cx="3.89897" cy="3.89897" r="3.89897" transform="matrix(0.351072 0.936348 0.936348 -0.351072 25.0044 49.6582)" fill="#5A5AFF"/>
<path d="M55.4029 169.123L53.3025 173.743L56.6429 175.262L58.7432 170.641L63.965 173.015L65.565 169.496L60.3433 167.122L62.4495 162.489L59.1091 160.97L57.0029 165.603L51.9988 163.328L50.3987 166.848L55.4029 169.123Z" fill="#5A5AFF"/>
<path d="M56.0341 68.5253L54.3432 72.2447L57.0323 73.4672L58.7232 69.7478L62.9269 71.6588L64.2149 68.8255L60.0113 66.9145L61.7068 63.1848L59.0178 61.9623L57.3222 65.692L53.2937 63.8606L52.0056 66.6939L56.0341 68.5253Z" fill="#5A5AFF"/>
<path d="M88.4085 15.1015L87.331 17.4718L89.0447 18.2509L90.1222 15.8806L92.8011 17.0984L93.622 15.2928L90.9431 14.075L92.0236 11.6981L90.3099 10.9191L89.2294 13.2959L86.6621 12.1288L85.8413 13.9344L88.4085 15.1015Z" fill="#5A5AFF"/>
<path d="M140.52 205.68L139.443 208.05L141.156 208.829L142.234 206.459L144.913 207.677L145.734 205.871L143.055 204.653L144.135 202.276L142.422 201.497L141.341 203.874L138.774 202.707L137.953 204.513L140.52 205.68Z" fill="#5A5AFF"/>
</svg>
