<svg width="240" height="222" viewBox="0 0 240 222" fill="none" xmlns="http://www.w3.org/2000/svg">
<circle cx="123.308" cy="82.0665" r="6.68027" transform="rotate(36.3547 123.308 82.0665)" fill="#5A5AFF"/>
<circle cx="190.3" cy="135.1" r="2.99921" transform="rotate(36.3547 190.3 135.1)" fill="#5A5AFF"/>
<circle cx="149.518" cy="163.674" r="2.99921" transform="rotate(36.3547 149.518 163.674)" fill="#5A5AFF"/>
<circle cx="165.623" cy="215.221" r="3.89897" transform="rotate(36.3547 165.623 215.221)" fill="#5A5AFF"/>
<circle cx="73.5393" cy="32.297" r="3.89897" transform="rotate(36.3547 73.5393 32.297)" fill="#5A5AFF"/>
<path d="M179.383 88.6274L184.4 87.8645L184.952 91.4922L179.934 92.2551L180.796 97.9259L176.974 98.507L176.112 92.8362L171.08 93.6012L170.529 89.9736L175.56 89.2086L174.734 83.7741L178.556 83.1929L179.383 88.6274Z" fill="#5A5AFF"/>
<path d="M82.4157 61.8421L86.455 61.2279L86.899 64.1483L82.8598 64.7624L83.5539 69.3276L80.4768 69.7954L79.7827 65.2303L75.7323 65.8461L75.2882 62.9257L79.3387 62.3099L78.6735 57.9349L81.7505 57.4671L82.4157 61.8421Z" fill="#5A5AFF"/>
<path d="M22.1951 78.4451L24.7692 78.0537L25.0522 79.9148L22.4781 80.3062L22.9204 83.2154L20.9595 83.5136L20.5171 80.6043L17.9359 80.9968L17.6529 79.1357L20.2342 78.7432L19.8103 75.9552L21.7712 75.657L22.1951 78.4451Z" fill="#5A5AFF"/>
<path d="M191.381 180.484L193.955 180.093L194.238 181.954L191.664 182.345L192.106 185.255L190.145 185.553L189.703 182.643L187.121 183.036L186.838 181.175L189.42 180.782L188.996 177.994L190.957 177.696L191.381 180.484Z" fill="#5A5AFF"/>
</svg>
