<svg width="20" height="20" viewBox="0 0 20 20" fill="none" xmlns="http://www.w3.org/2000/svg">
<path fill-rule="evenodd" clip-rule="evenodd" d="M4.22238 3.95898C4.07664 3.95898 3.9585 4.07713 3.9585 4.22287V7.77843C3.9585 7.92417 4.07664 8.04232 4.22238 8.04232H7.77794C7.92368 8.04232 8.04183 7.92417 8.04183 7.77843V4.22287C8.04183 4.07713 7.92368 3.95898 7.77794 3.95898H4.22238ZM2.7085 4.22287C2.7085 3.38678 3.38629 2.70898 4.22238 2.70898H7.77794C8.61404 2.70898 9.29183 3.38678 9.29183 4.22287V7.77843C9.29183 8.61453 8.61404 9.29232 7.77794 9.29232H4.22238C3.38629 9.29232 2.7085 8.61453 2.7085 7.77843V4.22287Z" fill="#5A5AFF"/>
<path fill-rule="evenodd" clip-rule="evenodd" d="M12.2224 3.95898C12.0766 3.95898 11.9585 4.07713 11.9585 4.22287V7.77843C11.9585 7.92417 12.0766 8.04232 12.2224 8.04232H15.7779C15.9237 8.04232 16.0418 7.92417 16.0418 7.77843V4.22287C16.0418 4.07713 15.9237 3.95898 15.7779 3.95898H12.2224ZM10.7085 4.22287C10.7085 3.38678 11.3863 2.70898 12.2224 2.70898H15.7779C16.614 2.70898 17.2918 3.38678 17.2918 4.22287V7.77843C17.2918 8.61453 16.614 9.29232 15.7779 9.29232H12.2224C11.3863 9.29232 10.7085 8.61453 10.7085 7.77843V4.22287Z" fill="#5A5AFF"/>
<path fill-rule="evenodd" clip-rule="evenodd" d="M4.22238 11.959C4.07664 11.959 3.9585 12.0771 3.9585 12.2229V15.7784C3.9585 15.9242 4.07664 16.0423 4.22238 16.0423H7.77794C7.92368 16.0423 8.04183 15.9242 8.04183 15.7784V12.2229C8.04183 12.0771 7.92368 11.959 7.77794 11.959H4.22238ZM2.7085 12.2229C2.7085 11.3868 3.38629 10.709 4.22238 10.709H7.77794C8.61404 10.709 9.29183 11.3868 9.29183 12.2229V15.7784C9.29183 16.6145 8.61404 17.2923 7.77794 17.2923H4.22238C3.38629 17.2923 2.7085 16.6145 2.7085 15.7784V12.2229Z" fill="#5A5AFF"/>
<path fill-rule="evenodd" clip-rule="evenodd" d="M12.2224 11.959C12.0766 11.959 11.9585 12.0771 11.9585 12.2229V15.7784C11.9585 15.9242 12.0766 16.0423 12.2224 16.0423H15.7779C15.9237 16.0423 16.0418 15.9242 16.0418 15.7784V12.2229C16.0418 12.0771 15.9237 11.959 15.7779 11.959H12.2224ZM10.7085 12.2229C10.7085 11.3868 11.3863 10.709 12.2224 10.709H15.7779C16.614 10.709 17.2918 11.3868 17.2918 12.2229V15.7784C17.2918 16.6145 16.614 17.2923 15.7779 17.2923H12.2224C11.3863 17.2923 10.7085 16.6145 10.7085 15.7784V12.2229Z" fill="#5A5AFF"/>
</svg>
