<svg width="20" height="20" viewBox="0 0 20 20" fill="none" xmlns="http://www.w3.org/2000/svg">
<path fill-rule="evenodd" clip-rule="evenodd" d="M3.75 4V5.66667H16.25V4H3.75ZM3.5 2.75C2.94772 2.75 2.5 3.19772 2.5 3.75V5.91667C2.5 6.46895 2.94772 6.91667 3.5 6.91667H16.5C17.0523 6.91667 17.5 6.46895 17.5 5.91667V3.75C17.5 3.19772 17.0523 2.75 16.5 2.75H3.5Z" fill="#616C79"/>
<path fill-rule="evenodd" clip-rule="evenodd" d="M3.75 9.16602V10.8327H16.25V9.16602H3.75ZM3.5 7.91602C2.94772 7.91602 2.5 8.36373 2.5 8.91602V11.0827C2.5 11.635 2.94772 12.0827 3.5 12.0827H16.5C17.0523 12.0827 17.5 11.635 17.5 11.0827V8.91602C17.5 8.36373 17.0523 7.91602 16.5 7.91602H3.5Z" fill="#616C79"/>
<path fill-rule="evenodd" clip-rule="evenodd" d="M3.75 14.334V16.0007H16.25V14.334H3.75ZM3.5 13.084C2.94772 13.084 2.5 13.5317 2.5 14.084V16.2507C2.5 16.8029 2.94772 17.2507 3.5 17.2507H16.5C17.0523 17.2507 17.5 16.8029 17.5 16.2507V14.084C17.5 13.5317 17.0523 13.084 16.5 13.084H3.5Z" fill="#616C79"/>
</svg>
