<svg width="23" height="21" viewBox="0 0 23 21" fill="none" xmlns="http://www.w3.org/2000/svg">
<path fill-rule="evenodd" clip-rule="evenodd" d="M2.70696 10.4572C2.57264 6.7857 5.43434 3.6977 9.10544 3.55273C12.7765 3.6977 15.6382 6.7857 15.5039 10.4572C15.5039 11.9821 17.1608 13.4677 17.2095 14.9961C17.2095 15.0177 17.2095 15.0393 17.2095 15.061C17.2453 16.0402 16.4819 16.8637 15.5028 16.902H11.8068C11.8102 17.6523 11.5274 18.3758 11.0159 18.9248C10.5242 19.4588 9.83138 19.7627 9.10544 19.7627C8.37949 19.7627 7.68668 19.4588 7.19493 18.9248C6.68348 18.3758 6.40066 17.6523 6.40409 16.902H2.70696C1.72782 16.8637 0.964378 16.0402 1.00024 15.061C1.00024 15.0393 1.00024 15.0177 1.00024 14.9961C1.05003 13.4723 2.70696 11.9833 2.70696 10.4572Z" stroke="black" stroke-width="1.73683" stroke-linecap="round" stroke-linejoin="round"/>
<path d="M6.40381 16.0327C5.9242 16.0327 5.53539 16.4215 5.53539 16.9011C5.53539 17.3808 5.9242 17.7696 6.40381 17.7696V16.0327ZM11.8065 17.7696C12.2861 17.7696 12.6749 17.3808 12.6749 16.9011C12.6749 16.4215 12.2861 16.0327 11.8065 16.0327V17.7696ZM10.2631 2.10474C10.7427 2.10474 11.1315 1.71594 11.1315 1.23633C11.1315 0.756716 10.7427 0.367914 10.2631 0.367914V2.10474ZM7.94728 0.367914C7.46767 0.367914 7.07886 0.756716 7.07886 1.23633C7.07886 1.71594 7.46767 2.10474 7.94728 2.10474V0.367914ZM6.40381 17.7696H11.8065V16.0327H6.40381V17.7696ZM10.2631 0.367914H7.94728V2.10474H10.2631V0.367914Z" fill="black"/>
<circle cx="20.6844" cy="3.5521" r="2.31577" fill="#5A5AFF"/>
</svg>
