<svg width="15" height="15" viewBox="0 0 15 15" fill="none" xmlns="http://www.w3.org/2000/svg">
<path d="M0.250004 7.50087C0.250417 7.91508 0.586538 8.25054 1.00075 8.25012C1.41497 8.24971 1.75042 7.91359 1.75 7.49937L0.250004 7.50087ZM2.06222 3.88915L2.69235 4.29588L2.69272 4.29531L2.06222 3.88915ZM4.89046 1.49545L4.59503 0.806091L4.59409 0.806493L4.89046 1.49545ZM8.53114 1.12405L8.68365 0.389717L8.68128 0.389233L8.53114 1.12405ZM11.7568 2.904L11.2168 3.42454L11.2174 3.42515L11.7568 2.904ZM12.6191 5.85029C12.7335 6.24839 13.149 6.47834 13.5471 6.36392C13.9452 6.24949 14.1751 5.83401 14.0607 5.43592L12.6191 5.85029ZM12.6138 5.45417C12.5097 5.85506 12.7502 6.26451 13.1511 6.3687C13.552 6.47289 13.9614 6.23235 14.0656 5.83146L12.6138 5.45417ZM14.7249 3.29477C14.8291 2.89387 14.5885 2.48442 14.1876 2.38024C13.7867 2.27605 13.3773 2.51658 13.2731 2.91748L14.7249 3.29477ZM13.1397 6.3664C13.5389 6.47672 13.952 6.2425 14.0623 5.84325C14.1727 5.444 13.9384 5.03091 13.5392 4.92058L13.1397 6.3664ZM11.0796 4.24091C10.6803 4.13059 10.2672 4.36481 10.1569 4.76406C10.0466 5.16331 10.2808 5.5764 10.6801 5.68673L11.0796 4.24091ZM14.7501 7.50004C14.7496 7.08583 14.4135 6.75038 13.9993 6.75079C13.5851 6.7512 13.2496 7.08733 13.2501 7.50154L14.7501 7.50004ZM12.9378 11.1118L12.3077 10.705L12.3073 10.7056L12.9378 11.1118ZM10.1096 13.5055L10.405 14.1948L10.406 14.1944L10.1096 13.5055ZM6.46892 13.8769L6.31641 14.6112L6.31878 14.6117L6.46892 13.8769ZM3.24328 12.0969L3.78322 11.5764L3.78263 11.5758L3.24328 12.0969ZM2.38098 9.15062C2.26656 8.75253 1.85108 8.52257 1.45298 8.63699C1.05489 8.75142 0.824928 9.1669 0.939354 9.56499L2.38098 9.15062ZM2.38613 9.54633C2.49031 9.14543 2.24978 8.73598 1.84888 8.63179C1.44799 8.52761 1.03854 8.76814 0.93435 9.16904L2.38613 9.54633ZM0.275109 11.7057C0.170923 12.1066 0.411454 12.5161 0.812351 12.6203C1.21325 12.7244 1.6227 12.4839 1.72688 12.083L0.275109 11.7057ZM1.85993 8.63358C1.46068 8.52325 1.04759 8.75747 0.937261 9.15672C0.826936 9.55597 1.06116 9.96907 1.46041 10.0794L1.85993 8.63358ZM3.92003 10.7591C4.31928 10.8694 4.73237 10.6352 4.8427 10.2359C4.95302 9.83666 4.7188 9.42357 4.31955 9.31324L3.92003 10.7591ZM1.75 7.49937C1.74887 6.36305 2.07611 5.2506 2.69235 4.29588L1.43208 3.48242C0.659072 4.68001 0.248581 6.07547 0.250004 7.50087L1.75 7.49937ZM2.69272 4.29531C3.29568 3.35932 4.16404 2.62438 5.18682 2.18442L4.59409 0.806493C3.29727 1.36434 2.19623 2.2962 1.43172 3.48299L2.69272 4.29531ZM5.18588 2.18482C6.19286 1.75328 7.30762 1.63955 8.381 1.85887L8.68128 0.389233C7.30853 0.108749 5.88286 0.254188 4.59503 0.806091L5.18588 2.18482ZM8.37863 1.85838C9.46068 2.08311 10.4498 2.62892 11.2168 3.42454L12.2967 2.38346C11.3203 1.37063 10.0611 0.6758 8.68365 0.389721L8.37863 1.85838ZM11.2174 3.42515C11.876 4.10671 12.3573 4.93943 12.6191 5.85029L14.0607 5.43592C13.7311 4.28921 13.1252 3.24088 12.2961 2.38285L11.2174 3.42515ZM14.0656 5.83146L14.7249 3.29477L13.2731 2.91748L12.6138 5.45417L14.0656 5.83146ZM13.5392 4.92058L11.0796 4.24091L10.6801 5.68673L13.1397 6.3664L13.5392 4.92058ZM13.2501 7.50154C13.2512 8.63786 12.9239 9.75031 12.3077 10.705L13.568 11.5185C14.341 10.3209 14.7515 8.92545 14.7501 7.50004L13.2501 7.50154ZM12.3073 10.7056C11.7044 11.6416 10.836 12.3765 9.81324 12.8165L10.406 14.1944C11.7028 13.6366 12.8038 12.7047 13.5683 11.5179L12.3073 10.7056ZM9.81417 12.8161C8.80719 13.2476 7.69244 13.3614 6.61906 13.142L6.31878 14.6117C7.69153 14.8922 9.1172 14.7467 10.405 14.1948L9.81417 12.8161ZM6.62143 13.1425C5.53938 12.9178 4.55024 12.372 3.78322 11.5764L2.70333 12.6174C3.67976 13.6303 4.93894 14.3251 6.31641 14.6112L6.62143 13.1425ZM3.78263 11.5758C3.12408 10.8942 2.64279 10.0615 2.38098 9.15062L0.939354 9.56499C1.26895 10.7117 1.87485 11.76 2.70392 12.6181L3.78263 11.5758ZM0.93435 9.16904L0.275109 11.7057L1.72688 12.083L2.38613 9.54633L0.93435 9.16904ZM1.46041 10.0794L3.92003 10.7591L4.31955 9.31324L1.85993 8.63358L1.46041 10.0794Z" fill="#5A5AFF"/>
</svg>
