<svg width="22" height="22" viewBox="0 0 22 22" fill="none" xmlns="http://www.w3.org/2000/svg">
<path d="M0.11524 11.001C0.115791 11.5533 0.563953 12.0006 1.11624 12C1.66852 11.9994 2.11579 11.5513 2.11524 10.999L0.11524 11.001ZM2.66768 5.72253L3.50786 6.26484L3.50835 6.26408L2.66768 5.72253ZM6.80118 2.22411L6.40727 1.30496L6.40603 1.3055L6.80118 2.22411ZM12.1221 1.6813L12.3254 0.70219L12.3223 0.701545L12.1221 1.6813ZM16.8364 4.28272L16.1165 4.97677L16.1172 4.97759L16.8364 4.28272ZM18.189 8.5622C18.3416 9.09299 18.8956 9.3996 19.4264 9.24703C19.9572 9.09447 20.2638 8.54049 20.1112 8.0097L18.189 8.5622ZM18.1816 8.03436C18.0427 8.56888 18.3634 9.11482 18.8979 9.25373C19.4325 9.39265 19.9784 9.07194 20.1173 8.53741L18.1816 8.03436ZM21.0808 4.83002C21.2197 4.29549 20.899 3.74955 20.3645 3.61064C19.83 3.47172 19.284 3.79243 19.1451 4.32696L21.0808 4.83002ZM18.8833 9.25005C19.4156 9.39715 19.9664 9.08485 20.1135 8.55252C20.2606 8.02018 19.9483 7.46939 19.4159 7.32229L18.8833 9.25005ZM15.8212 6.32895C15.2889 6.18185 14.7381 6.49414 14.591 7.02648C14.4439 7.55881 14.7562 8.1096 15.2885 8.2567L15.8212 6.32895ZM21.1149 10.9995C21.1143 10.4472 20.6662 9.99996 20.1139 10.0005C19.5616 10.0011 19.1143 10.4492 19.1149 11.0015L21.1149 10.9995ZM18.5624 16.278L17.7223 15.7357L17.7218 15.7364L18.5624 16.278ZM14.4289 19.7764L14.8228 20.6955L14.8241 20.695L14.4289 19.7764ZM9.10803 20.3192L8.90469 21.2983L8.90785 21.299L9.10803 20.3192ZM4.39372 17.7178L5.11365 17.0237L5.11286 17.0229L4.39372 17.7178ZM3.04108 13.4383C2.88851 12.9075 2.33454 12.6009 1.80375 12.7535C1.27295 12.906 0.966341 13.46 1.11891 13.9908L3.04108 13.4383ZM3.04721 13.9661C3.18612 13.4316 2.86542 12.8856 2.33089 12.7467C1.79636 12.6078 1.25042 12.9285 1.11151 13.463L3.04721 13.9661ZM0.14802 17.1704C0.00910544 17.705 0.329814 18.2509 0.864343 18.3898C1.39887 18.5287 1.94481 18.208 2.08372 17.6735L0.14802 17.1704ZM2.34634 12.7496C1.81401 12.6025 1.26322 12.9148 1.11612 13.4472C0.969018 13.9795 1.28131 14.5303 1.81365 14.6774L2.34634 12.7496ZM5.40841 15.6707C5.94074 15.8178 6.49153 15.5055 6.63863 14.9732C6.78573 14.4409 6.47344 13.8901 5.94111 13.743L5.40841 15.6707ZM2.11524 10.999C2.11356 9.31972 2.59716 7.67573 3.50786 6.26484L1.8275 5.18022C0.70778 6.91495 0.113179 8.93628 0.11524 11.001L2.11524 10.999ZM3.50835 6.26408C4.39993 4.88004 5.68396 3.79329 7.19633 3.14273L6.40603 1.3055C4.52826 2.11323 2.934 3.46255 1.82701 5.18098L3.50835 6.26408ZM7.19508 3.14326C8.6848 2.50485 10.334 2.33661 11.9219 2.66106L12.3223 0.701545C10.3352 0.295534 8.27146 0.506063 6.40728 1.30496L7.19508 3.14326ZM11.9187 2.66041C13.5191 2.99278 14.982 3.80005 16.1165 4.97677L17.5563 3.58867C16.1427 2.12232 14.3197 1.11637 12.3254 0.702195L11.9187 2.66041ZM16.1172 4.97759C17.0907 5.985 17.802 7.21585 18.189 8.5622L20.1112 8.0097C19.6338 6.34889 18.7563 4.83057 17.5555 3.58786L16.1172 4.97759ZM20.1173 8.53741L21.0808 4.83002L19.1451 4.32696L18.1816 8.03436L20.1173 8.53741ZM19.4159 7.32229L15.8212 6.32895L15.2885 8.2567L18.8833 9.25005L19.4159 7.32229ZM19.1149 11.0015C19.1166 12.6808 18.6329 14.3248 17.7223 15.7357L19.4026 16.8203C20.5223 15.0856 21.1169 13.0642 21.1149 10.9995L19.1149 11.0015ZM17.7218 15.7364C16.8302 17.1205 15.5462 18.2072 14.0338 18.8578L14.8241 20.695C16.7018 19.8873 18.2961 18.538 19.4031 16.8195L17.7218 15.7364ZM14.035 18.8572C12.5453 19.4957 10.8962 19.6639 9.30822 19.3394L8.90785 21.299C10.8949 21.705 12.9587 21.4944 14.8228 20.6955L14.035 18.8572ZM9.31138 19.3401C7.71102 19.0077 6.24809 18.2005 5.11365 17.0237L3.6738 18.4118C5.08745 19.8782 6.91044 20.8841 8.90469 21.2983L9.31138 19.3401ZM5.11286 17.0229C4.13945 16.0155 3.42807 14.7847 3.04108 13.4383L1.11891 13.9908C1.59628 15.6516 2.47382 17.1699 3.67459 18.4127L5.11286 17.0229ZM1.11151 13.463L0.14802 17.1704L2.08372 17.6735L3.04721 13.9661L1.11151 13.463ZM1.81365 14.6774L5.40841 15.6707L5.94111 13.743L2.34634 12.7496L1.81365 14.6774Z" fill="black"/>
</svg>
