<svg width="24" height="23" viewBox="0 0 24 23" fill="none" xmlns="http://www.w3.org/2000/svg">
<path d="M23.7115 19.5384C23.7115 18.848 23.1519 18.2884 22.4615 18.2884C21.7712 18.2884 21.2115 18.848 21.2115 19.5384H23.7115ZM21.2115 20.9999C21.2115 21.6902 21.7712 22.2499 22.4615 22.2499C23.1519 22.2499 23.7115 21.6902 23.7115 20.9999H21.2115ZM21.2115 19.5386C21.2115 20.2289 21.7712 20.7886 22.4615 20.7886C23.1519 20.7886 23.7115 20.2289 23.7115 19.5386H21.2115ZM23.7115 3.46165C23.7115 2.77129 23.1519 2.21165 22.4615 2.21165C21.7712 2.21165 21.2115 2.77129 21.2115 3.46165H23.7115ZM22.1996 20.7608C22.8746 20.9055 23.5391 20.4755 23.6838 19.8005C23.8285 19.1255 23.3985 18.461 22.7235 18.3163L22.1996 20.7608ZM13.9543 16.4368C13.2793 16.2921 12.6147 16.722 12.4701 17.397C12.3254 18.0721 12.7553 18.7366 13.4303 18.8812L13.9543 16.4368ZM3.25 15.1537C3.25 14.4633 2.69036 13.9037 2 13.9037C1.30965 13.9037 0.750004 14.4633 0.750004 15.1537H3.25ZM0.750004 16.6152C0.750004 17.3055 1.30965 17.8652 2 17.8652C2.69036 17.8652 3.25 17.3055 3.25 16.6152H0.750004ZM0.750004 15.154C0.750004 15.8444 1.30965 16.404 2 16.404C2.69036 16.404 3.25 15.8444 3.25 15.154H0.750004ZM3.25 7.84635C3.25 7.15599 2.69036 6.59635 2 6.59635C1.30965 6.59635 0.750004 7.15599 0.750004 7.84635H3.25ZM2.26187 13.9314C1.58683 13.7868 0.922365 14.2167 0.777738 14.8918C0.633111 15.5668 1.06309 16.2313 1.73813 16.3759L2.26187 13.9314ZM13.4304 18.881C14.1055 19.0256 14.7699 18.5956 14.9146 17.9206C15.0592 17.2456 14.6292 16.5811 13.9542 16.4365L13.4304 18.881ZM21.2115 3.46154C21.2115 4.15189 21.7712 4.71154 22.4615 4.71154C23.1519 4.71154 23.7115 4.15189 23.7115 3.46154H21.2115ZM23.7115 2C23.7115 1.30964 23.1519 0.75 22.4615 0.75C21.7712 0.75 21.2115 1.30964 21.2115 2H23.7115ZM22.7234 4.6839C23.3985 4.53925 23.8284 3.87477 23.6838 3.19973C23.5391 2.5247 22.8747 2.09474 22.1996 2.23939L22.7234 4.6839ZM1.73809 6.62401C1.06306 6.76866 0.633097 7.43314 0.777747 8.10817C0.922397 8.7832 1.58688 9.21316 2.26191 9.06851L1.73809 6.62401ZM0.750004 7.84624C0.750004 8.5366 1.30965 9.09624 2 9.09624C2.69036 9.09624 3.25 8.5366 3.25 7.84624H0.750004ZM3.25 6.3847C3.25 5.69435 2.69036 5.1347 2 5.1347C1.30965 5.1347 0.750004 5.69435 0.750004 6.3847H3.25ZM9.09616 16.4061C9.09616 15.7157 8.53652 15.1561 7.84616 15.1561C7.15581 15.1561 6.59616 15.7157 6.59616 16.4061H9.09616ZM7.84616 17.5753L9.09287 17.666C9.09507 17.6358 9.09616 17.6056 9.09616 17.5753H7.84616ZM10.7692 20.9997L10.663 22.2452C10.7327 22.2511 10.8027 22.2512 10.8724 22.2454L10.7692 20.9997ZM14.9407 17.5954C14.9058 16.9059 14.3185 16.3753 13.6291 16.4102C12.9396 16.4452 12.409 17.0324 12.4439 17.7219L14.9407 17.5954ZM21.2115 19.5384V20.9999H23.7115V19.5384H21.2115ZM23.7115 19.5386V3.46165H21.2115V19.5386H23.7115ZM22.7235 18.3163L13.9543 16.4368L13.4303 18.8812L22.1996 20.7608L22.7235 18.3163ZM0.750004 15.1537V16.6152H3.25V15.1537H0.750004ZM3.25 15.154V7.84635H0.750004V15.154H3.25ZM1.73813 16.3759L13.4304 18.881L13.9542 16.4365L2.26187 13.9314L1.73813 16.3759ZM23.7115 3.46154V2H21.2115V3.46154H23.7115ZM22.1996 2.23939L1.73809 6.62401L2.26191 9.06851L22.7234 4.6839L22.1996 2.23939ZM3.25 7.84624V6.3847H0.750004V7.84624H3.25ZM6.59616 16.4061V17.5753H9.09616V16.4061H6.59616ZM6.59945 17.4847C6.42269 19.9163 8.23385 22.0381 10.663 22.2452L10.8754 19.7542C9.80983 19.6634 9.01533 18.7326 9.09287 17.666L6.59945 17.4847ZM10.8724 22.2454C13.2613 22.0476 15.062 19.9894 14.9407 17.5954L12.4439 17.7219C12.4969 18.7681 11.71 19.6675 10.6661 19.754L10.8724 22.2454Z" fill="#5A5AFF"/>
</svg>
