<svg width="15" height="15" viewBox="0 0 15 15" fill="none" xmlns="http://www.w3.org/2000/svg">
<path fill-rule="evenodd" clip-rule="evenodd" d="M3.35803 0.468801C3.19474 -0.0825586 2.4123 -0.102266 2.23974 0.446264L2.21734 0.517482C1.94462 1.38442 1.27912 2.07204 0.42155 2.37293L0.374767 2.38935C-0.134509 2.56804 -0.121465 3.29275 0.393911 3.453C1.26534 3.72396 1.95016 4.40242 2.22924 5.27128L2.28196 5.43541C2.45535 5.97524 3.22556 5.95634 3.37227 5.40866L3.38733 5.35242C3.63179 4.43984 4.32956 3.71783 5.23326 3.44235C5.74085 3.28762 5.7535 2.5736 5.2517 2.40099L5.17673 2.3752C4.30055 2.07381 3.62113 1.35723 3.35803 0.468801ZM10.434 4.66275C10.26 4.07342 9.42774 4.06643 9.24385 4.65275L8.68108 6.44705C8.38772 7.3824 7.67057 8.1247 6.74589 8.45011L5.18596 8.99908C4.62124 9.19782 4.63574 10.0014 5.20727 10.1797L6.67192 10.6365C7.63922 10.9381 8.39894 11.6921 8.70797 12.6571L9.30498 14.5213C9.49436 15.1127 10.3381 15.092 10.4984 14.4921L10.9543 12.7849C11.2313 11.7479 12.0234 10.927 13.0498 10.6131L14.4644 10.1806C15.0405 10.0045 15.0549 9.19422 14.4854 8.99775L12.9143 8.45571C11.9639 8.12779 11.2306 7.36062 10.9458 6.39632L10.434 4.66275Z" fill="white"/>
</svg>
