<svg width="28" height="28" viewBox="0 0 28 28" fill="none" xmlns="http://www.w3.org/2000/svg">
<rect width="27.0954" height="27.0986" rx="13.5477" fill="#5A5AFF"/>
<path fill-rule="evenodd" clip-rule="evenodd" d="M10.3694 8.09272C10.2427 7.66471 9.63529 7.64941 9.50134 8.07522L9.48395 8.13051C9.27225 8.80349 8.75564 9.33726 8.08993 9.57084L8.05362 9.58358C7.65828 9.72229 7.66841 10.2849 8.06848 10.4093C8.74494 10.6196 9.27655 11.1463 9.49319 11.8207L9.53411 11.9481C9.66871 12.3672 10.2666 12.3525 10.3805 11.9274L10.3922 11.8837C10.5819 11.1753 11.1236 10.6148 11.8251 10.401C12.2191 10.2809 12.229 9.72661 11.8394 9.59262L11.7812 9.5726C11.1011 9.33864 10.5737 8.78238 10.3694 8.09272ZM15.8621 11.3485C15.7271 10.891 15.081 10.8856 14.9383 11.3407L14.5014 12.7336C14.2737 13.4597 13.717 14.0359 12.9992 14.2885L11.7883 14.7147C11.3499 14.8689 11.3611 15.4928 11.8048 15.6311L12.9418 15.9857C13.6927 16.2199 14.2824 16.8051 14.5223 17.5542L14.9857 19.0014C15.1328 19.4604 15.7877 19.4444 15.9121 18.9787L16.2661 17.6535C16.4811 16.8485 17.0959 16.2112 17.8928 15.9676L18.9909 15.6319C19.4381 15.4951 19.4492 14.8661 19.0072 14.7136L17.7876 14.2929C17.0498 14.0383 16.4805 13.4428 16.2595 12.6942L15.8621 11.3485Z" fill="white"/>
</svg>
