<svg width="35" height="35" viewBox="0 0 35 35" fill="none" xmlns="http://www.w3.org/2000/svg">
<path fill-rule="evenodd" clip-rule="evenodd" d="M8.30285 0.445411C8.12851 -0.143265 7.29727 -0.150271 7.11304 0.435382L6.05995 3.78304C5.76576 4.71821 5.04788 5.45995 4.12281 5.78453L1.13192 6.83396C0.566477 7.03236 0.58096 7.83699 1.15317 8.01491L4.0491 8.91536C5.01664 9.2162 5.77699 9.96948 6.08684 10.9342L7.20297 14.409C7.39271 14.9997 8.23553 14.9791 8.39607 14.3798L9.28473 11.0623C9.56249 10.0254 10.3553 9.20505 11.3821 8.89205L14.2565 8.01586C14.8332 7.84005 14.8476 7.02876 14.2774 6.83263L11.2467 5.79013C10.2958 5.46304 9.56177 4.6964 9.27623 3.73222L8.30285 0.445411ZM22.9042 8.90445C22.7302 8.31513 21.898 8.30813 21.7141 8.89445L19.3909 16.3016C19.0976 17.237 18.3804 17.9793 17.4557 18.3047L10.747 20.6656C10.1823 20.8644 10.1968 21.668 10.7683 21.8462L17.3818 23.9087C18.3491 24.2104 19.1088 24.9643 19.4178 25.9293L21.8784 33.6126C22.0677 34.204 22.9115 34.1834 23.0717 33.5834L25.0819 26.0572C25.3588 25.0202 26.1509 24.1992 27.1774 23.8854L33.8439 21.8472C34.42 21.671 34.4344 20.8608 33.8649 20.6643L27.0419 18.3103C26.0914 17.9823 25.3581 17.2152 25.0734 16.2509L22.9042 8.90445Z" fill="black"/>
</svg>
